<svg id="Layer_1" data-name="Layer 1" xmlns="http://www.w3.org/2000/svg" viewBox="0 0 462 462"><defs><style>.cls-1{fill:#d41f00;}.cls-2{fill:#fcfcfc;}</style></defs><title>sh4r10</title><circle class="cls-1" cx="231" cy="231" r="231"/><polygon class="cls-2" points="272.92 93 301.03 110.89 142.58 205.44 142.58 169.67 272.92 93"/><polygon class="cls-2" points="311.25 116 334.25 128.78 142.58 241.22 142.58 213.11 311.25 116"/><polyline class="cls-2" points="203.92 277 205.25 212 150.25 245"/><path class="cls-2" d="M201.56,240.67" transform="translate(-25.75 -25)"/><polygon class="cls-2" points="255.03 185 255.03 248.89 311.25 215.67 255.03 185"/><polygon class="cls-2" points="316.36 220.78 127.25 333.22 147.69 346 316.36 248.89 316.36 220.78"/><polygon class="cls-2" points="316.36 256.56 316.36 292.33 183.47 369 155.36 351.11 316.36 256.56"/></svg>