<svg id="Layer_1" data-name="Layer 1" xmlns="http://www.w3.org/2000/svg" viewBox="0 0 124.44 124.44"><defs><style>.cls-1{fill:#2d3d51;}.cls-2{opacity:0.3;}.cls-3{fill:#1ed760;stroke:#07a53c;stroke-miterlimit:10;}</style></defs><title>favdesign2</title><circle class="cls-1" cx="62.22" cy="62.22" r="62.22"/><g class="cls-2"><path d="M68.05,26.76,102.16,46s1.51.64,2.06-.51c0,0,1-.76-.33-2.06l-34-19.16s-1.63-1-2.3.27A1.85,1.85,0,0,0,68.05,26.76Z" transform="translate(-1.78 -1.78)"/><path d="M68.05,39.78,102.16,59s1.51.64,2.06-.51c0,0,1-.76-.33-2.06L69.9,37.3s-1.63-1-2.3.27A1.85,1.85,0,0,0,68.05,39.78Z" transform="translate(-1.78 -1.78)"/><path d="M68.05,53.53l34.11,19.25s1.51.64,2.06-.51c0,0,1-.76-.33-2.06L69.9,51s-1.63-1-2.3.27A1.85,1.85,0,0,0,68.05,53.53Z" transform="translate(-1.78 -1.78)"/><path d="M24.89,63.37,59,82.62s1.51.64,2.06-.51c0,0,1-.76-.33-2.06l-34-19.16s-1.63-1-2.3.27A1.85,1.85,0,0,0,24.89,63.37Z" transform="translate(-1.78 -1.78)"/><path d="M24.89,76.4,59,95.64s1.51.64,2.06-.51c0,0,1-.76-.33-2.06l-34-19.16s-1.63-1-2.3.27A1.85,1.85,0,0,0,24.89,76.4Z" transform="translate(-1.78 -1.78)"/><path d="M24.89,90.14,59,109.39s1.51.64,2.06-.51c0,0,1-.76-.33-2.06l-34-19.16s-1.63-1-2.3.27A1.85,1.85,0,0,0,24.89,90.14Z" transform="translate(-1.78 -1.78)"/><path d="M57.33,25.88V71.22s1.61,1.69,3,0V26.13s.19-1.14-1.49-1.77C58.82,24.36,57.33,24.52,57.33,25.88Z" transform="translate(-1.78 -1.78)"/><path d="M46.26,31.49V63.92a2.43,2.43,0,0,0,3,0V31.66s.19-.7-1.49-1.26C47.75,30.4,46.35,30.49,46.26,31.49Z" transform="translate(-1.78 -1.78)"/><path d="M41.42,39" transform="translate(-1.78 -1.78)"/><path d="M35.06,39V56.4s-.06,2,1.59,2c0,0,1.65.23,1.51-2.06V39s.26-1.84-1.55-1.81A1.54,1.54,0,0,0,35.06,39Z" transform="translate(-1.78 -1.78)"/><path d="M24,46.09v4.66a1.47,1.47,0,0,0,1.53,1.59,1.52,1.52,0,0,0,1.56-1.65v-4.6s.43-1.62-1.55-1.62S24,46.09,24,46.09Z" transform="translate(-1.78 -1.78)"/><path d="M69.83,108l.25-45.34s-1.6-1.7-3,0l-.25,45.09s-.19,1.14,1.48,1.78C68.34,109.56,69.82,109.41,69.83,108Z" transform="translate(-1.78 -1.78)"/><path d="M81,101.08l.18-32.43a2.43,2.43,0,0,0-3,0L78,100.9s-.19.7,1.48,1.27C79.52,102.17,80.91,102.08,81,101.08Z" transform="translate(-1.78 -1.78)"/><path d="M85.89,93.61" transform="translate(-1.78 -1.78)"/><path d="M92.24,95.24l.1-19s.07-2.21-1.58-2.16c0,0-1.65-.26-1.52,2.23l-.11,18.9s-.27,2,1.54,2C90.68,97.21,92.37,97.24,92.24,95.24Z" transform="translate(-1.78 -1.78)"/><path d="M103.35,86.61l0-4.66a1.47,1.47,0,0,0-1.53-1.6A1.52,1.52,0,0,0,100.28,82l0,4.6s-.44,1.62,1.54,1.63S103.35,86.61,103.35,86.61Z" transform="translate(-1.78 -1.78)"/></g><path class="cls-3" d="M67.79,24,101.9,43.27s1.51.64,2.06-.51c0,0,1-.76-.33-2.06l-34-19.16s-1.63-1-2.3.27A1.85,1.85,0,0,0,67.79,24Z" transform="translate(-1.78 -1.78)"/><path class="cls-3" d="M67.79,37,101.9,56.29s1.51.64,2.06-.51c0,0,1-.76-.33-2.06l-34-19.16s-1.63-1-2.3.27A1.85,1.85,0,0,0,67.79,37Z" transform="translate(-1.78 -1.78)"/><path class="cls-3" d="M67.79,50.79,101.9,70s1.51.64,2.06-.51c0,0,1-.76-.33-2.06l-34-19.16s-1.63-1-2.3.27A1.85,1.85,0,0,0,67.79,50.79Z" transform="translate(-1.78 -1.78)"/><path class="cls-3" d="M24.63,60.63,58.73,79.88s1.51.64,2.06-.51c0,0,1-.76-.33-2.06l-34-19.16s-1.63-1-2.3.27A1.85,1.85,0,0,0,24.63,60.63Z" transform="translate(-1.78 -1.78)"/><path class="cls-3" d="M24.63,73.65,58.73,92.9s1.51.64,2.06-.51c0,0,1-.76-.33-2.06l-34-19.16s-1.63-1-2.3.27A1.85,1.85,0,0,0,24.63,73.65Z" transform="translate(-1.78 -1.78)"/><path class="cls-3" d="M24.63,87.4l34.11,19.25s1.51.64,2.06-.51c0,0,1-.76-.33-2.06l-34-19.16s-1.63-1-2.3.27A1.85,1.85,0,0,0,24.63,87.4Z" transform="translate(-1.78 -1.78)"/><path class="cls-3" d="M57.07,23.14V68.48s1.61,1.69,3,0V23.38s.19-1.14-1.49-1.77C58.56,21.62,57.07,21.78,57.07,23.14Z" transform="translate(-1.78 -1.78)"/><path class="cls-3" d="M46,28.75V61.17a2.43,2.43,0,0,0,3,0V28.92s.19-.7-1.49-1.26C47.48,27.66,46.09,27.75,46,28.75Z" transform="translate(-1.78 -1.78)"/><path class="cls-3" d="M41.16,36.25" transform="translate(-1.78 -1.78)"/><path class="cls-3" d="M34.8,36.25V53.66s-.06,2,1.59,2c0,0,1.65.23,1.51-2.06V36.25s.26-1.84-1.55-1.81A1.54,1.54,0,0,0,34.8,36.25Z" transform="translate(-1.78 -1.78)"/><path class="cls-3" d="M23.74,43.35V48a1.47,1.47,0,0,0,1.53,1.59A1.52,1.52,0,0,0,26.84,48v-4.6s.43-1.62-1.55-1.62S23.74,43.35,23.74,43.35Z" transform="translate(-1.78 -1.78)"/><path class="cls-3" d="M69.57,105.3,69.82,60s-1.6-1.7-3,0L66.6,105s-.19,1.14,1.48,1.78C68.07,106.82,69.56,106.67,69.57,105.3Z" transform="translate(-1.78 -1.78)"/><path class="cls-3" d="M80.75,98.34l.18-32.43a2.43,2.43,0,0,0-3,0l-.18,32.25s-.19.7,1.48,1.27C79.26,99.43,80.65,99.34,80.75,98.34Z" transform="translate(-1.78 -1.78)"/><path class="cls-3" d="M85.63,90.87" transform="translate(-1.78 -1.78)"/><path class="cls-3" d="M92,92.5l.1-19s.07-2.21-1.58-2.16c0,0-1.65-.26-1.52,2.23l-.11,18.9s-.27,2,1.54,2C90.41,94.47,92.11,94.5,92,92.5Z" transform="translate(-1.78 -1.78)"/><path class="cls-3" d="M103.09,83.86l0-4.66a1.47,1.47,0,0,0-1.53-1.6A1.52,1.52,0,0,0,100,79.24l0,4.6s-.44,1.62,1.54,1.63S103.09,83.86,103.09,83.86Z" transform="translate(-1.78 -1.78)"/></svg>