<svg id="Layer_1" data-name="Layer 1" xmlns="http://www.w3.org/2000/svg" viewBox="0 0 1751.82 1023.02"><defs><style>.cls-1{fill:#2d3d51;}.cls-2{fill:#1ed760;}.cls-3{fill:#fff;}</style></defs><title>sh4r10</title><circle class="cls-1" cx="1501.82" cy="250" r="250"/><path d="M1573.64,242.82" transform="translate(-103.11 -24.12)"/><path class="cls-2" d="M1501.72,200.54l1.42-7.39q-1.14-15.34-20.74-15.34a27.48,27.48,0,0,0-19.75,8.1q-8.38,8.1-8.38,17t7.53,15.63A81.57,81.57,0,0,0,1480,230.52q10.66,5.26,21.31,11.37a61.92,61.92,0,0,1,18.19,15.77,34.69,34.69,0,0,1,7.53,21.88q0,25.29-19.89,39.78t-42.91,14.49q-23,0-38.36-8.38T1410.5,300a24.89,24.89,0,0,1,6.25-16.48q6.25-7.39,17.9-7.39a14.15,14.15,0,0,1,8.24,2.56,10.57,10.57,0,0,1,4.55,6.82q0,4.26-5.12,4.26-9.66,0-9.66,8.24.28,9.38,9,17t24.44,7.67a37.54,37.54,0,0,0,27-10.8,34.94,34.94,0,0,0,11.22-26.14q0-10.23-7.67-18.47a71.18,71.18,0,0,0-18.47-14.07q-10.8-5.82-21.74-11.79A69.55,69.55,0,0,1,1437.78,227a28.1,28.1,0,0,1-7.67-19.32q0-19,16.34-30.4a63.39,63.39,0,0,1,37.08-11.37,55.79,55.79,0,0,1,25.29,5.68q11.36,5.69,11.65,17.33a18.41,18.41,0,0,1-3.41,11.37,10.94,10.94,0,0,1-9.23,4.55Q1502,204.81,1501.72,200.54Z" transform="translate(-103.11 -24.12)"/><path class="cls-2" d="M1554.89,323.37l.14,4.37q0,3.94-2.25,3.94a22.76,22.76,0,0,1-6.48-.92q-3.1-.91-3.1-2.54t.77-11.13q.77-9.51.78-14.3v-8.17q0-36.06,12.82-45.92a9.92,9.92,0,0,1,6.06-2.25q1.41,0,2.82,3.1a19.57,19.57,0,0,1,1.41,8,62.36,62.36,0,0,1-4.08,22.68q-4.09,10.56-8.31,16.2-.14,3.52-.14,11,.56-.85,5.92-9.58a88.52,88.52,0,0,1,9.08-12.82Q1574,281,1577,281a8,8,0,0,1,5.28,2,6.21,6.21,0,0,1,2.32,4.93,179.82,179.82,0,0,1-1.34,18.24q-1.34,12-1.34,15.21t.84,3.17q2.39-.14,6.62-6a87.73,87.73,0,0,0,8.38-15q4.15-9.15,5.07-9.16c.61,0,.92.38.92,1.13q0,3.94-4.08,12.54-11.13,23.66-18.73,23.66-5.49,0-8.31-2.25-1-1-1-5.14t.77-13.52q.77-9.37.77-14t-1.62-4.65q-1.62,0-8.52,9.65t-7.32,12.32A55.16,55.16,0,0,0,1554.89,323.37Zm9.16-62.68q0-5.92-1.55-5.92-2.53,0-4.93,15.64-1.27,8.31-1.83,19.3Q1564,272.38,1564,260.69Z" transform="translate(-103.11 -24.12)"/><path class="cls-2" d="M1629.12,308.3l-27.47,1.55a5.47,5.47,0,0,1-3.8-1.27,3.68,3.68,0,0,1-1.41-2.75q0-1.48,3.8-2.61,1.13-3.66,8.8-21.83t8.31-20.49q.63-2.32,1.34-5.42a41.62,41.62,0,0,1,1.27-4.65,8.67,8.67,0,0,1,2.39-3.24,5.72,5.72,0,0,1,3.94-1.69,3.14,3.14,0,0,1,3,1.83,8.71,8.71,0,0,1,.92,3.94,19.82,19.82,0,0,1-3.66,10.92q-3.66,5.57-9.86,17.4a210.44,210.44,0,0,0-10.28,22.54,66.13,66.13,0,0,0,14.16-1.62q7.39-1.62,10.07-2,2.11-24.51,5.35-24.51,1.55,0,3.17,2.11a6.94,6.94,0,0,1,1.62,4.23L1639.68,298a18.15,18.15,0,0,1,9.65,2.54q4.15,2.54,4.16,5.49,0,3.67-4.65,3.66a21,21,0,0,1-5-.77,21.42,21.42,0,0,0-5.14-.77q-.28,5.92-.28,18.31a5.15,5.15,0,0,1-2.18,4.23,9.81,9.81,0,0,1-6.13,1.69q-2.82,0-2.82-4.65A134.37,134.37,0,0,1,1629.12,308.3Z" transform="translate(-103.11 -24.12)"/><path class="cls-2" d="M1669.69,294.21l7.75-.85a2.39,2.39,0,0,1,2,1.27,4.75,4.75,0,0,1,.84,2.68q0,1.41-.92,9.58a122.13,122.13,0,0,0-.92,12.89q0,4.72.85,4.72,2.39-.14,6.62-6a87.73,87.73,0,0,0,8.38-15q4.15-9.15,5.07-9.16t.92,1.13q0,3.94-4.08,12.54-11.13,23.66-18.73,23.66-5.49,0-8.31-2.25-1-1-1-12.25a68,68,0,0,1,2.39-19.3q-8.17,0-11.41-5.21a11.1,11.1,0,0,1-1.69-6.06,12,12,0,0,1,1.41-5.92,4.39,4.39,0,0,1,4-2.54q2.6,0,4.79,2.75a9.61,9.61,0,0,1,2.18,6.13,13.32,13.32,0,0,1-2,6.76A3.1,3.1,0,0,0,1669.69,294.21Z" transform="translate(-103.11 -24.12)"/><path class="cls-2" d="M1717.15,260.12q4.79-8,9.58-8t4.79,18.88q0,5.49-.92,14.51t-1.2,13q0,10.56-.77,18.38t-1.06,9.23a14.93,14.93,0,0,1-1.13,3.24q-1.41,3.1-7,3.1-3.1,0-3.1-6.76t2.61-24.58q2.6-17.82,2.61-27.26t-1.06-9.44q-1.06,0-5.7,9.16t-6.83,14.23a56.75,56.75,0,0,0-3.17,9.23,30.4,30.4,0,0,1-2,6.13,3,3,0,0,1-2.68,2q-2.68,0-2.68-2.89t6.41-16.69A275.86,275.86,0,0,1,1717.15,260.12Z" transform="translate(-103.11 -24.12)"/><path class="cls-2" d="M1772.79,260l-7.32.7c-.75,0-1.13-.47-1.13-1.41q0-2.39,3.8-4.08a21.68,21.68,0,0,1,8.87-1.69q8.87,0,15.07,8.45t6.2,24.51a60.79,60.79,0,0,1-7.75,29.72,30.55,30.55,0,0,1-10.56,11.2,28,28,0,0,1-15.35,4.3q-12,0-17.54-8.24t-5.56-20.92q0-23.8,11.41-38.74,4.79-6.34,8.17-6.34a.87.87,0,0,1,1,1,5.13,5.13,0,0,1-1.27,2.54q-5.92,8.45-7.18,16.34a129.93,129.93,0,0,0-1.27,20q0,12.12,4.37,19.79t10.56,7.68a16,16,0,0,0,10.21-3.17,19,19,0,0,0,6-8.38,62.81,62.81,0,0,0,3.8-22,60.89,60.89,0,0,0-3.66-21.48Q1780,260,1772.79,260Z" transform="translate(-103.11 -24.12)"/><circle class="cls-1" cx="250" cy="773.02" r="250"/><path class="cls-3" d="M249.9,723.57l1.42-7.39q-1.14-15.34-20.74-15.34a27.48,27.48,0,0,0-19.75,8.1q-8.38,8.1-8.38,17T210,741.61a81.56,81.56,0,0,0,18.19,11.93q10.66,5.26,21.31,11.37a61.93,61.93,0,0,1,18.19,15.77,34.69,34.69,0,0,1,7.53,21.88q0,25.29-19.89,39.78t-42.91,14.49q-23,0-38.36-8.38T158.68,823a24.88,24.88,0,0,1,6.25-16.48q6.25-7.39,17.9-7.39a14.16,14.16,0,0,1,8.24,2.56,10.57,10.57,0,0,1,4.55,6.82q0,4.26-5.12,4.26-9.66,0-9.66,8.24.28,9.38,9,17t24.44,7.67a37.54,37.54,0,0,0,27-10.8,34.94,34.94,0,0,0,11.22-26.14q0-10.23-7.67-18.47a71.16,71.16,0,0,0-18.47-14.07q-10.8-5.82-21.74-11.79A69.56,69.56,0,0,1,186,750a28.1,28.1,0,0,1-7.67-19.32q0-19,16.34-30.41a63.39,63.39,0,0,1,37.08-11.37A55.78,55.78,0,0,1,257,694.58q11.36,5.69,11.65,17.33a18.41,18.41,0,0,1-3.41,11.37,10.94,10.94,0,0,1-9.24,4.55Q250.18,727.83,249.9,723.57Z" transform="translate(-103.11 -24.12)"/><path class="cls-3" d="M303.07,846.39l.14,4.37q0,3.94-2.25,3.94a22.78,22.78,0,0,1-6.48-.92q-3.1-.92-3.1-2.54t.77-11.13q.77-9.51.77-14.3v-8.17q0-36.06,12.82-45.92a9.92,9.92,0,0,1,6.06-2.25q1.41,0,2.82,3.1a19.57,19.57,0,0,1,1.41,8,62.34,62.34,0,0,1-4.08,22.68q-4.09,10.56-8.31,16.2-.14,3.52-.14,11,.56-.85,5.92-9.58a88.47,88.47,0,0,1,9.09-12.82q3.73-4.08,6.69-4.08a8,8,0,0,1,5.28,2,6.21,6.21,0,0,1,2.32,4.93,179.83,179.83,0,0,1-1.34,18.24q-1.34,12-1.34,15.21t.85,3.17q2.39-.14,6.62-6a87.64,87.64,0,0,0,8.38-15q4.15-9.16,5.07-9.16t.92,1.13q0,3.95-4.08,12.54-11.13,23.66-18.73,23.66-5.49,0-8.31-2.25-1-1-1-5.14t.77-13.52q.77-9.37.77-14t-1.62-4.65q-1.62,0-8.52,9.65t-7.32,12.33A55.16,55.16,0,0,0,303.07,846.39Zm9.16-62.68q0-5.92-1.55-5.92-2.54,0-4.93,15.63-1.27,8.31-1.83,19.3Q312.22,795.4,312.23,783.71Z" transform="translate(-103.11 -24.12)"/><path class="cls-3" d="M377.3,831.32l-27.47,1.55a5.47,5.47,0,0,1-3.8-1.27,3.68,3.68,0,0,1-1.41-2.75q0-1.48,3.8-2.61,1.13-3.66,8.8-21.83t8.31-20.5q.63-2.32,1.34-5.42a41.45,41.45,0,0,1,1.27-4.65,8.68,8.68,0,0,1,2.39-3.24,5.72,5.72,0,0,1,3.94-1.69,3.14,3.14,0,0,1,3,1.83,8.72,8.72,0,0,1,.92,3.94,19.83,19.83,0,0,1-3.66,10.92q-3.66,5.57-9.86,17.4a210.55,210.55,0,0,0-10.28,22.54,66.15,66.15,0,0,0,14.16-1.62q7.4-1.62,10.07-2,2.11-24.51,5.35-24.51,1.55,0,3.17,2.11a6.94,6.94,0,0,1,1.62,4.23L387.86,821a18.15,18.15,0,0,1,9.65,2.54q4.15,2.54,4.16,5.49,0,3.67-4.65,3.66a20.93,20.93,0,0,1-5-.77,21.44,21.44,0,0,0-5.14-.77q-.28,5.92-.28,18.31a5.15,5.15,0,0,1-2.18,4.23,9.82,9.82,0,0,1-6.13,1.69q-2.82,0-2.82-4.65A134.23,134.23,0,0,1,377.3,831.32Z" transform="translate(-103.11 -24.12)"/><path class="cls-3" d="M417.86,817.23l7.75-.84a2.39,2.39,0,0,1,2,1.27,4.75,4.75,0,0,1,.85,2.68q0,1.41-.92,9.58a122.23,122.23,0,0,0-.92,12.89q0,4.72.85,4.72,2.39-.14,6.62-6a87.61,87.61,0,0,0,8.38-15q4.15-9.16,5.07-9.16t.92,1.13q0,3.95-4.08,12.54-11.13,23.66-18.73,23.66-5.49,0-8.31-2.25-1-1-1-12.25a68.05,68.05,0,0,1,2.39-19.3q-8.17,0-11.41-5.21a11.1,11.1,0,0,1-1.69-6.06,12,12,0,0,1,1.41-5.92,4.39,4.39,0,0,1,4-2.54q2.61,0,4.79,2.75A9.61,9.61,0,0,1,418,810a13.33,13.33,0,0,1-2,6.76A3.1,3.1,0,0,0,417.86,817.23Z" transform="translate(-103.11 -24.12)"/><path class="cls-3" d="M465.33,783.15q4.79-8,9.58-8T479.7,794q0,5.49-.92,14.51t-1.2,13q0,10.56-.77,18.38t-1.06,9.23a14.94,14.94,0,0,1-1.13,3.24q-1.41,3.1-7,3.1-3.1,0-3.1-6.76t2.61-24.58q2.6-17.82,2.61-27.26t-1.06-9.44q-1.06,0-5.7,9.16t-6.83,14.23a56.63,56.63,0,0,0-3.17,9.23,30.34,30.34,0,0,1-2,6.13,3,3,0,0,1-2.68,2q-2.68,0-2.68-2.89T452,808.5A276,276,0,0,1,465.33,783.15Z" transform="translate(-103.11 -24.12)"/><path class="cls-3" d="M521,783l-7.32.7q-1.13,0-1.13-1.41,0-2.39,3.8-4.08a21.68,21.68,0,0,1,8.87-1.69q8.87,0,15.07,8.45t6.2,24.51a60.79,60.79,0,0,1-7.75,29.72,30.55,30.55,0,0,1-10.56,11.2,28,28,0,0,1-15.35,4.3q-12,0-17.54-8.24t-5.56-20.92q0-23.8,11.41-38.74,4.79-6.34,8.17-6.34a.87.87,0,0,1,1,1A5.13,5.13,0,0,1,509,784q-5.92,8.45-7.18,16.34a129.93,129.93,0,0,0-1.27,20q0,12.12,4.37,19.79t10.56,7.68a16,16,0,0,0,10.21-3.17,19,19,0,0,0,6-8.38,62.83,62.83,0,0,0,3.8-22,60.88,60.88,0,0,0-3.66-21.48Q528.15,783,521,783Z" transform="translate(-103.11 -24.12)"/><ellipse class="cls-2" cx="250" cy="250" rx="249.7" ry="250"/><path d="M321.85,242.82" transform="translate(-103.11 -24.12)"/><path class="cls-3" d="M250,200.54l1.42-7.39q-1.14-15.34-20.72-15.34a27.43,27.43,0,0,0-19.73,8.1q-8.37,8.1-8.37,17t7.52,15.63a81.44,81.44,0,0,0,18.16,11.93q10.64,5.26,21.29,11.37a61.88,61.88,0,0,1,18.16,15.77,34.71,34.71,0,0,1,7.52,21.88q0,25.29-19.87,39.78t-42.86,14.49q-23,0-38.31-8.38T158.91,300a24.9,24.9,0,0,1,6.24-16.48q6.24-7.39,17.88-7.39a14.13,14.13,0,0,1,8.23,2.56,10.58,10.58,0,0,1,4.54,6.82q0,4.26-5.11,4.26-9.65,0-9.65,8.24.28,9.38,8.94,17t24.41,7.67a37.47,37.47,0,0,0,27-10.8,35,35,0,0,0,11.21-26.14q0-10.23-7.66-18.47a71.1,71.1,0,0,0-18.45-14.07q-10.79-5.82-21.71-11.79A69.49,69.49,0,0,1,186.16,227a28.12,28.12,0,0,1-7.66-19.32q0-19,16.32-30.4a63.26,63.26,0,0,1,37-11.37,55.67,55.67,0,0,1,25.26,5.68q11.35,5.69,11.64,17.33a18.42,18.42,0,0,1-3.41,11.37,10.92,10.92,0,0,1-9.22,4.55Q250.3,204.81,250,200.54Z" transform="translate(-103.11 -24.12)"/><path class="cls-3" d="M303.13,323.37l.14,4.37q0,3.94-2.25,3.94a22.7,22.7,0,0,1-6.47-.92q-3.1-.91-3.1-2.54t.77-11.13q.77-9.51.77-14.3v-8.17q0-36.06,12.8-45.92a9.9,9.9,0,0,1,6-2.25q1.4,0,2.81,3.1a19.58,19.58,0,0,1,1.41,8A62.41,62.41,0,0,1,312,280.27q-4.08,10.56-8.3,16.2-.14,3.52-.14,11,.56-.85,5.91-9.58a88.43,88.43,0,0,1,9.07-12.82q3.73-4.08,6.68-4.08a7.93,7.93,0,0,1,5.28,2,6.21,6.21,0,0,1,2.32,4.93,180.16,180.16,0,0,1-1.34,18.24q-1.34,12-1.34,15.21t.84,3.17q2.39-.14,6.61-6a87.65,87.65,0,0,0,8.37-15q4.15-9.15,5.06-9.16t.91,1.13q0,3.94-4.08,12.54-11.12,23.66-18.71,23.66-5.49,0-8.3-2.25-1-1-1-5.14t.77-13.52q.77-9.37.77-14t-1.62-4.65q-1.62,0-8.51,9.65T304,314.07A55.21,55.21,0,0,0,303.13,323.37Zm9.14-62.68q0-5.92-1.55-5.92-2.53,0-4.92,15.64-1.27,8.31-1.83,19.3Q312.27,272.38,312.27,260.69Z" transform="translate(-103.11 -24.12)"/><path class="cls-3" d="M377.27,308.3l-27.43,1.55a5.46,5.46,0,0,1-3.8-1.27,3.68,3.68,0,0,1-1.41-2.75q0-1.48,3.8-2.61,1.12-3.66,8.79-21.83t8.3-20.49q.63-2.32,1.34-5.42a41.68,41.68,0,0,1,1.27-4.65,8.68,8.68,0,0,1,2.39-3.24,5.71,5.71,0,0,1,3.94-1.69,3.14,3.14,0,0,1,3,1.83,8.72,8.72,0,0,1,.91,3.94,19.84,19.84,0,0,1-3.66,10.92q-3.66,5.57-9.85,17.4a210.5,210.5,0,0,0-10.27,22.54,66,66,0,0,0,14.14-1.62q7.39-1.62,10.06-2,2.11-24.51,5.35-24.51,1.55,0,3.17,2.11a7,7,0,0,1,1.62,4.23L387.82,298a18.11,18.11,0,0,1,9.64,2.54q4.15,2.54,4.15,5.49,0,3.67-4.64,3.66a20.91,20.91,0,0,1-5-.77,21.37,21.37,0,0,0-5.13-.77q-.28,5.92-.28,18.31a5.15,5.15,0,0,1-2.18,4.23,9.79,9.79,0,0,1-6.12,1.69q-2.82,0-2.81-4.65A134.45,134.45,0,0,1,377.27,308.3Z" transform="translate(-103.11 -24.12)"/><path class="cls-3" d="M417.78,294.21l7.74-.85a2.39,2.39,0,0,1,2,1.27,4.75,4.75,0,0,1,.84,2.68q0,1.41-.91,9.58a122.46,122.46,0,0,0-.91,12.89q0,4.72.84,4.72,2.39-.14,6.61-6a87.69,87.69,0,0,0,8.37-15q4.15-9.15,5.06-9.16t.91,1.13q0,3.94-4.08,12.54-11.12,23.66-18.71,23.66-5.49,0-8.3-2.25-1-1-1-12.25a68.13,68.13,0,0,1,2.39-19.3q-8.16,0-11.4-5.21a11.11,11.11,0,0,1-1.69-6.06,12,12,0,0,1,1.41-5.92,4.39,4.39,0,0,1,4-2.54q2.6,0,4.78,2.75a9.62,9.62,0,0,1,2.18,6.13,13.33,13.33,0,0,1-2,6.76A3.09,3.09,0,0,0,417.78,294.21Z" transform="translate(-103.11 -24.12)"/><path class="cls-3" d="M465.19,260.12q4.78-8,9.57-8T479.54,271q0,5.49-.91,14.51t-1.2,13q0,10.56-.77,18.38T475.6,326a15,15,0,0,1-1.13,3.24q-1.41,3.1-7,3.1-3.1,0-3.1-6.76T467,301q2.6-17.82,2.6-27.26t-1.06-9.44q-1.06,0-5.7,9.16T456,287.73a56.66,56.66,0,0,0-3.17,9.23,30.35,30.35,0,0,1-2,6.13,3,3,0,0,1-2.67,2q-2.67,0-2.67-2.89t6.4-16.69A276.11,276.11,0,0,1,465.19,260.12Z" transform="translate(-103.11 -24.12)"/><path class="cls-3" d="M520.76,260l-7.32.7c-.75,0-1.13-.47-1.13-1.41q0-2.39,3.8-4.08A21.63,21.63,0,0,1,525,253.5q8.86,0,15.05,8.45t6.19,24.51a60.85,60.85,0,0,1-7.74,29.72,30.54,30.54,0,0,1-10.55,11.2,27.94,27.94,0,0,1-15.33,4.3q-12,0-17.52-8.24t-5.56-20.92q0-23.8,11.4-38.74,4.78-6.34,8.16-6.34a.87.87,0,0,1,1,1A5.14,5.14,0,0,1,508.8,261q-5.91,8.45-7.17,16.34a130,130,0,0,0-1.27,20q0,12.12,4.36,19.79t10.55,7.68a16,16,0,0,0,10.2-3.17,19,19,0,0,0,6-8.38,62.88,62.88,0,0,0,3.8-22,60.94,60.94,0,0,0-3.66-21.48Q527.93,260,520.76,260Z" transform="translate(-103.11 -24.12)"/><circle class="cls-2" cx="1501.82" cy="773.02" r="250"/><path d="M1573.64,765.85" transform="translate(-103.11 -24.12)"/><path class="cls-1" d="M1501.72,723.57l1.42-7.39q-1.14-15.34-20.74-15.34a27.48,27.48,0,0,0-19.75,8.1q-8.38,8.1-8.38,17t7.53,15.63A81.55,81.55,0,0,0,1480,753.55q10.66,5.26,21.31,11.37a61.92,61.92,0,0,1,18.19,15.77,34.69,34.69,0,0,1,7.53,21.88q0,25.29-19.89,39.78t-42.91,14.49q-23,0-38.36-8.38T1410.5,823a24.88,24.88,0,0,1,6.25-16.48q6.25-7.39,17.9-7.39a14.15,14.15,0,0,1,8.24,2.56,10.57,10.57,0,0,1,4.55,6.82q0,4.26-5.12,4.26-9.66,0-9.66,8.24.28,9.38,9,17t24.44,7.67a37.54,37.54,0,0,0,27-10.8,34.94,34.94,0,0,0,11.22-26.14q0-10.23-7.67-18.47a71.17,71.17,0,0,0-18.47-14.07q-10.8-5.82-21.74-11.79A69.55,69.55,0,0,1,1437.78,750a28.1,28.1,0,0,1-7.67-19.32q0-19,16.34-30.41a63.4,63.4,0,0,1,37.08-11.37,55.78,55.78,0,0,1,25.29,5.68q11.36,5.69,11.65,17.33a18.4,18.4,0,0,1-3.41,11.37,10.94,10.94,0,0,1-9.23,4.55Q1502,727.83,1501.72,723.57Z" transform="translate(-103.11 -24.12)"/><path class="cls-1" d="M1554.89,846.39l.14,4.37q0,3.94-2.25,3.94a22.78,22.78,0,0,1-6.48-.92q-3.1-.92-3.1-2.54t.77-11.13q.77-9.51.78-14.3v-8.17q0-36.06,12.82-45.92a9.92,9.92,0,0,1,6.06-2.25q1.41,0,2.82,3.1a19.57,19.57,0,0,1,1.41,8,62.36,62.36,0,0,1-4.08,22.68q-4.09,10.56-8.31,16.2-.14,3.52-.14,11,.56-.85,5.92-9.58a88.51,88.51,0,0,1,9.08-12.82Q1574,804,1577,804a8,8,0,0,1,5.28,2,6.21,6.21,0,0,1,2.32,4.93,179.8,179.8,0,0,1-1.34,18.24q-1.34,12-1.34,15.21t.84,3.17q2.39-.14,6.62-6a87.71,87.71,0,0,0,8.38-15q4.15-9.16,5.07-9.16c.61,0,.92.38.92,1.13q0,3.95-4.08,12.54-11.13,23.66-18.73,23.66-5.49,0-8.31-2.25-1-1-1-5.14t.77-13.52q.77-9.37.77-14t-1.62-4.65q-1.62,0-8.52,9.65t-7.32,12.33A55.16,55.16,0,0,0,1554.89,846.39Zm9.16-62.68q0-5.92-1.55-5.92-2.53,0-4.93,15.63-1.27,8.31-1.83,19.3Q1564,795.4,1564,783.71Z" transform="translate(-103.11 -24.12)"/><path class="cls-1" d="M1629.12,831.32l-27.47,1.55a5.47,5.47,0,0,1-3.8-1.27,3.68,3.68,0,0,1-1.41-2.75q0-1.48,3.8-2.61,1.13-3.66,8.8-21.83t8.31-20.5q.63-2.32,1.34-5.42a41.56,41.56,0,0,1,1.27-4.65,8.67,8.67,0,0,1,2.39-3.24,5.72,5.72,0,0,1,3.94-1.69,3.14,3.14,0,0,1,3,1.83,8.71,8.71,0,0,1,.92,3.94,19.82,19.82,0,0,1-3.66,10.92q-3.66,5.57-9.86,17.4a210.57,210.57,0,0,0-10.28,22.54,66.15,66.15,0,0,0,14.16-1.62q7.39-1.62,10.07-2,2.11-24.51,5.35-24.51,1.55,0,3.17,2.11a6.94,6.94,0,0,1,1.62,4.23L1639.68,821a18.15,18.15,0,0,1,9.65,2.54q4.15,2.54,4.16,5.49,0,3.67-4.65,3.66a20.93,20.93,0,0,1-5-.77,21.44,21.44,0,0,0-5.14-.77q-.28,5.92-.28,18.31a5.15,5.15,0,0,1-2.18,4.23,9.81,9.81,0,0,1-6.13,1.69q-2.82,0-2.82-4.65A134.37,134.37,0,0,1,1629.12,831.32Z" transform="translate(-103.11 -24.12)"/><path class="cls-1" d="M1669.69,817.23l7.75-.84a2.39,2.39,0,0,1,2,1.27,4.75,4.75,0,0,1,.84,2.68q0,1.41-.92,9.58a122.12,122.12,0,0,0-.92,12.89q0,4.72.85,4.72,2.39-.14,6.62-6a87.71,87.71,0,0,0,8.38-15q4.15-9.16,5.07-9.16t.92,1.13q0,3.95-4.08,12.54Q1685,854.7,1677.43,854.7q-5.49,0-8.31-2.25-1-1-1-12.25a68.05,68.05,0,0,1,2.39-19.3q-8.17,0-11.41-5.21a11.1,11.1,0,0,1-1.69-6.06,12,12,0,0,1,1.41-5.92,4.39,4.39,0,0,1,4-2.54q2.6,0,4.79,2.75a9.61,9.61,0,0,1,2.18,6.13,13.32,13.32,0,0,1-2,6.76A3.1,3.1,0,0,0,1669.69,817.23Z" transform="translate(-103.11 -24.12)"/><path class="cls-1" d="M1717.15,783.15q4.79-8,9.58-8t4.79,18.87q0,5.49-.92,14.51t-1.2,13q0,10.56-.77,18.38t-1.06,9.23a14.93,14.93,0,0,1-1.13,3.24q-1.41,3.1-7,3.1-3.1,0-3.1-6.76t2.61-24.58q2.6-17.82,2.61-27.26t-1.06-9.44q-1.06,0-5.7,9.16t-6.83,14.23a56.77,56.77,0,0,0-3.17,9.23,30.41,30.41,0,0,1-2,6.13,3,3,0,0,1-2.68,2q-2.68,0-2.68-2.89t6.41-16.69A275.8,275.8,0,0,1,1717.15,783.15Z" transform="translate(-103.11 -24.12)"/><path class="cls-1" d="M1772.79,783l-7.32.7c-.75,0-1.13-.47-1.13-1.41q0-2.39,3.8-4.08a21.68,21.68,0,0,1,8.87-1.69q8.87,0,15.07,8.45t6.2,24.51a60.79,60.79,0,0,1-7.75,29.72A30.55,30.55,0,0,1,1780,850.4a28,28,0,0,1-15.35,4.3q-12,0-17.54-8.24t-5.56-20.92q0-23.8,11.41-38.74,4.79-6.34,8.17-6.34a.87.87,0,0,1,1,1,5.13,5.13,0,0,1-1.27,2.54q-5.92,8.45-7.18,16.34a129.93,129.93,0,0,0-1.27,20q0,12.12,4.37,19.79t10.56,7.68a16,16,0,0,0,10.21-3.17,19,19,0,0,0,6-8.38,62.81,62.81,0,0,0,3.8-22,60.89,60.89,0,0,0-3.66-21.48Q1780,783,1772.79,783Z" transform="translate(-103.11 -24.12)"/></svg>